<svg width="120" height="25" viewBox="0 0 120 25" fill="none" xmlns="http://www.w3.org/2000/svg">
<path d="M14 13.6411H16.5L17.5 9.64111H14V7.64111C14 6.61111 14 5.64111 16 5.64111H17.5V2.28111C17.174 2.23811 15.943 2.14111 14.643 2.14111C11.928 2.14111 10 3.79811 10 6.84111V9.64111H7V13.6411H10V22.1411H14V13.6411Z" fill="#494949"/>
<path d="M70.1623 5.79802C69.3989 6.13571 68.5893 6.35749 67.7603 6.45602C68.634 5.93345 69.288 5.11103 69.6003 4.14202C68.7803 4.63002 67.8813 4.97202 66.9443 5.15702C66.3149 4.4836 65.4807 4.03698 64.5713 3.8866C63.6618 3.73622 62.7282 3.89051 61.9156 4.32547C61.1029 4.76043 60.4567 5.4517 60.0774 6.29181C59.6981 7.13192 59.607 8.0738 59.8183 8.97102C58.1554 8.88767 56.5286 8.45554 55.0436 7.70268C53.5585 6.94982 52.2484 5.89306 51.1983 4.60102C50.8266 5.23947 50.6313 5.96524 50.6323 6.70402C50.6323 8.15402 51.3703 9.43502 52.4923 10.185C51.8283 10.1641 51.1789 9.9848 50.5983 9.66202V9.71402C50.5985 10.6797 50.9327 11.6156 51.5441 12.3631C52.1556 13.1105 53.0068 13.6235 53.9533 13.815C53.3369 13.9821 52.6906 14.0067 52.0633 13.887C52.3302 14.7183 52.8503 15.4452 53.5509 15.9661C54.2515 16.487 55.0974 16.7758 55.9703 16.792C55.1028 17.4733 54.1095 17.977 53.0472 18.2742C51.9849 18.5714 50.8744 18.6563 49.7793 18.524C51.691 19.7534 53.9164 20.4061 56.1893 20.404C63.8823 20.404 68.0893 14.031 68.0893 8.50402C68.0893 8.32402 68.0843 8.14202 68.0763 7.96402C68.8952 7.37218 69.6019 6.63904 70.1633 5.79902L70.1623 5.79802Z" fill="#494949"/>
<path d="M108 2.14111C110.717 2.14111 111.056 2.15111 112.122 2.20111C113.187 2.25111 113.912 2.41811 114.55 2.66611C115.21 2.92011 115.766 3.26411 116.322 3.81911C116.83 4.31901 117.224 4.9237 117.475 5.59111C117.722 6.22811 117.89 6.95411 117.94 8.01911C117.987 9.08511 118 9.42411 118 12.1411C118 14.8581 117.99 15.1971 117.94 16.2631C117.89 17.3281 117.722 18.0531 117.475 18.6911C117.225 19.3589 116.831 19.9637 116.322 20.4631C115.822 20.9714 115.217 21.3649 114.55 21.6161C113.913 21.8631 113.187 22.0311 112.122 22.0811C111.056 22.1281 110.717 22.1411 108 22.1411C105.283 22.1411 104.944 22.1311 103.878 22.0811C102.813 22.0311 102.088 21.8631 101.45 21.6161C100.782 21.3656 100.178 20.9721 99.678 20.4631C99.1694 19.9633 98.7759 19.3586 98.525 18.6911C98.277 18.0541 98.11 17.3281 98.06 16.2631C98.013 15.1971 98 14.8581 98 12.1411C98 9.42411 98.01 9.08511 98.06 8.01911C98.11 6.95311 98.277 6.22911 98.525 5.59111C98.7752 4.92329 99.1688 4.31843 99.678 3.81911C100.178 3.31034 100.782 2.91684 101.45 2.66611C102.088 2.41811 102.812 2.25111 103.878 2.20111C104.944 2.15411 105.283 2.14111 108 2.14111ZM108 7.14111C106.674 7.14111 105.402 7.6679 104.464 8.60558C103.527 9.54326 103 10.815 103 12.1411C103 13.4672 103.527 14.739 104.464 15.6766C105.402 16.6143 106.674 17.1411 108 17.1411C109.326 17.1411 110.598 16.6143 111.536 15.6766C112.473 14.739 113 13.4672 113 12.1411C113 10.815 112.473 9.54326 111.536 8.60558C110.598 7.6679 109.326 7.14111 108 7.14111ZM114.5 6.89111C114.5 6.55959 114.368 6.24165 114.134 6.00723C113.899 5.77281 113.582 5.64111 113.25 5.64111C112.918 5.64111 112.601 5.77281 112.366 6.00723C112.132 6.24165 112 6.55959 112 6.89111C112 7.22263 112.132 7.54058 112.366 7.775C112.601 8.00942 112.918 8.14111 113.25 8.14111C113.582 8.14111 113.899 8.00942 114.134 7.775C114.368 7.54058 114.5 7.22263 114.5 6.89111ZM108 9.14111C108.796 9.14111 109.559 9.45718 110.121 10.0198C110.684 10.5824 111 11.3455 111 12.1411C111 12.9368 110.684 13.6998 110.121 14.2624C109.559 14.825 108.796 15.1411 108 15.1411C107.204 15.1411 106.441 14.825 105.879 14.2624C105.316 13.6998 105 12.9368 105 12.1411C105 11.3455 105.316 10.5824 105.879 10.0198C106.441 9.45718 107.204 9.14111 108 9.14111Z" fill="#494949"/>
</svg>
